<?xml version="1.0" encoding="utf-8"?>
<!-- Generator: Adobe Illustrator 26.0.1, SVG Export Plug-In . SVG Version: 6.00 Build 0)  -->
<svg version="1.1" id="Layer_1" xmlns="http://www.w3.org/2000/svg" xmlns:xlink="http://www.w3.org/1999/xlink" x="0px" y="0px"
	 viewBox="0 0 300 300" style="enable-background:new 0 0 300 300;" xml:space="preserve">
<style type="text/css">
	.st0{fill:url(#SVGID_1_);}
	.st1{fill:url(#SVGID_00000034083696712921888430000000074469837782411455_);}
	.st2{fill:url(#SVGID_00000129169678368430486980000000713784940979565747_);}
	.st3{fill:#B6863C;}
</style>
<g>
	<g>
		<linearGradient id="SVGID_1_" gradientUnits="userSpaceOnUse" x1="149.4928" y1="138.0066" x2="167.2173" y2="138.0066">
			<stop  offset="6.845651e-02" style="stop-color:#F5E585"/>
			<stop  offset="0.1099" style="stop-color:#E4CD74"/>
			<stop  offset="0.1799" style="stop-color:#CCAC5B"/>
			<stop  offset="0.2467" style="stop-color:#BB9449"/>
			<stop  offset="0.3082" style="stop-color:#B1853F"/>
			<stop  offset="0.3594" style="stop-color:#AD803B"/>
			<stop  offset="0.4897" style="stop-color:#C1954B"/>
			<stop  offset="0.6607" style="stop-color:#E2B664"/>
			<stop  offset="0.8848" style="stop-color:#AD803B"/>
		</linearGradient>
		<path class="st0" d="M167.2,137.9c0.3-10.5-7.6-16.9-17.7-16.2v0.7c15.3,1.3,15.3,30,0,31.2v0.7
			C159.7,155,167.6,148.5,167.2,137.9z"/>
		<g>
			
				<linearGradient id="SVGID_00000036233840321987636660000016251044191774248361_" gradientUnits="userSpaceOnUse" x1="131.821" y1="147.3394" x2="147.1787" y2="147.3394">
				<stop  offset="6.845651e-02" style="stop-color:#F5E585"/>
				<stop  offset="0.1099" style="stop-color:#E4CD74"/>
				<stop  offset="0.1799" style="stop-color:#CCAC5B"/>
				<stop  offset="0.2467" style="stop-color:#BB9449"/>
				<stop  offset="0.3082" style="stop-color:#B1853F"/>
				<stop  offset="0.3594" style="stop-color:#AD803B"/>
				<stop  offset="0.4897" style="stop-color:#C1954B"/>
				<stop  offset="0.6607" style="stop-color:#E2B664"/>
				<stop  offset="0.8848" style="stop-color:#AD803B"/>
			</linearGradient>
			<path style="fill:url(#SVGID_00000036233840321987636660000016251044191774248361_);" d="M137,140.4c0,5-0.1,9.4-0.1,9.7
				c-0.2,0.8-0.6,1.5-1.1,2.1c-0.5,0.5-1,0.9-1.6,1.1c-0.6,0.2-1.4,0.4-2.4,0.4v0.6h15.4v-0.6c-1-0.1-1.8-0.2-2.4-0.4
				c-0.6-0.2-1.1-0.6-1.6-1.1c-0.5-0.5-0.9-1.2-1.1-2.1c-0.1-0.4-0.1-4.8-0.1-9.7l-2.5,1.4L137,140.4z"/>
			
				<linearGradient id="SVGID_00000065054395594465542480000013649267073573829269_" gradientUnits="userSpaceOnUse" x1="131.821" y1="128.6726" x2="147.1787" y2="128.6726">
				<stop  offset="6.845651e-02" style="stop-color:#F5E585"/>
				<stop  offset="0.1099" style="stop-color:#E4CD74"/>
				<stop  offset="0.1799" style="stop-color:#CCAC5B"/>
				<stop  offset="0.2467" style="stop-color:#BB9449"/>
				<stop  offset="0.3082" style="stop-color:#B1853F"/>
				<stop  offset="0.3594" style="stop-color:#AD803B"/>
				<stop  offset="0.4897" style="stop-color:#C1954B"/>
				<stop  offset="0.6607" style="stop-color:#E2B664"/>
				<stop  offset="0.8848" style="stop-color:#AD803B"/>
			</linearGradient>
			<path style="fill:url(#SVGID_00000065054395594465542480000013649267073573829269_);" d="M143.2,123.8c0.5-0.5,1-0.9,1.6-1.1
				c0.6-0.2,1.4-0.4,2.4-0.4v-0.6h-15.4v0.6c1,0.1,1.8,0.2,2.4,0.4c0.6,0.2,1.1,0.6,1.6,1.1c0.5,0.5,0.9,1.2,1.1,2.1
				c0.1,0.4,0.1,4.8,0.1,9.7l2.5-1.4l2.5,1.4c0-5,0.1-9.4,0.1-9.7C142.3,125,142.7,124.4,143.2,123.8z"/>
		</g>
	</g>
	<g>
		<g>
			<g>
				<path class="st3" d="M111.1,175.6v-3.9h2.9c-0.1-0.3-0.2-0.7-0.2-1c0-0.4,0.1-0.7,0.2-1h-2.9v-3.5h6.7V164h-9.1v13.8h9.5v-2.2
					H111.1z"/>
				<path class="st3" d="M114.7,170.6c0,0.8,0.6,1.4,1.4,1.4c0.8,0,1.4-0.6,1.4-1.4c0-0.8-0.6-1.4-1.4-1.4
					C115.3,169.2,114.7,169.9,114.7,170.6z"/>
			</g>
			<g>
				<path class="st3" d="M88.2,167.3v10.5h2.5v-10.5c-0.4,0.2-0.8,0.4-1.2,0.4C89,167.7,88.5,167.5,88.2,167.3z"/>
				<path class="st3" d="M89.4,166.7c0.8,0,1.4-0.6,1.4-1.4c0-0.8-0.6-1.4-1.4-1.4c-0.8,0-1.4,0.6-1.4,1.4
					C88,166.1,88.6,166.7,89.4,166.7z"/>
			</g>
			<g>
				<path class="st3" d="M103,172.4c-0.1,0.3-0.2,0.5-0.3,0.7c-0.3,0.6-0.7,1.1-1.3,1.5c-0.5,0.4-1.1,0.6-1.7,0.8
					c-0.6,0.1-1.3,0.2-1.9,0.2h-2v-9.5h2c0.6,0,1.3,0.1,1.9,0.2c0.6,0.1,1.2,0.4,1.7,0.7c0.5,0.4,0.9,0.8,1.3,1.5
					c0.1,0.2,0.1,0.3,0.2,0.5c0.4-0.4,1-0.6,1.6-0.6c0.4,0,0.7,0.1,1,0.2c-0.1-0.3-0.2-0.6-0.4-0.9c-0.5-0.9-1-1.6-1.8-2.1
					c-0.7-0.5-1.5-0.9-2.5-1.2c-0.9-0.2-1.8-0.4-2.7-0.4h-4.9v13.8h4.9c0.9,0,1.8-0.1,2.7-0.4c0.9-0.3,1.7-0.7,2.5-1.2
					c0.7-0.6,1.3-1.3,1.8-2.1c0.2-0.4,0.3-0.8,0.5-1.2c-0.3,0.2-0.7,0.3-1.1,0.3C103.9,173,103.4,172.8,103,172.4z"/>
				<path class="st3" d="M103.1,170.6c0,0.8,0.6,1.4,1.4,1.4c0.8,0,1.4-0.6,1.4-1.4c0-0.8-0.6-1.4-1.4-1.4
					C103.7,169.2,103.1,169.9,103.1,170.6z"/>
			</g>
			<g>
				<path class="st3" d="M127.7,172.1c-0.8,0-1.4,0.6-1.4,1.4c0,0.8,0.6,1.4,1.4,1.4c0.8,0,1.4-0.6,1.4-1.4
					C129.1,172.8,128.5,172.1,127.7,172.1z"/>
				<polygon class="st3" points="128.8,164 126.7,164 120.7,177.7 123.5,177.7 124.7,174.6 125.5,172.5 127.7,166.9 129.8,172.5 
					130.7,174.6 132,177.7 134.8,177.7 				"/>
			</g>
		</g>
		<g>
			<g>
				<g>
					<path class="st3" d="M209.4,174l-1.5-2.4c1-0.2,1.7-0.6,2.3-1.3c0.6-0.6,0.8-1.4,0.8-2.4c0-0.7-0.1-1.3-0.4-1.9
						c-0.3-0.5-0.7-0.9-1.1-1.2c-0.5-0.3-1-0.5-1.6-0.7c-0.6-0.1-1.2-0.2-1.9-0.2h-4.8v13.8h2.5v-5.8h1.8l1.8,3.4
						C207.7,174.5,208.4,174,209.4,174C209.4,174,209.4,174,209.4,174z M206.7,169.8c-0.4,0.1-0.7,0.1-1.1,0.1h-2V166h2.2
						c0.3,0,0.6,0,1,0.1c0.3,0.1,0.6,0.1,0.9,0.3c0.3,0.1,0.5,0.3,0.6,0.6c0.2,0.2,0.3,0.5,0.3,0.9c0,0.4-0.1,0.8-0.3,1
						c-0.2,0.3-0.4,0.5-0.7,0.6C207.4,169.6,207,169.7,206.7,169.8z"/>
					<path class="st3" d="M209.3,174.9c-0.8,0-1.4,0.6-1.4,1.4c0,0.8,0.6,1.4,1.4,1.4c0.8,0,1.4-0.6,1.4-1.4
						C210.8,175.6,210.1,174.9,209.3,174.9z"/>
				</g>
				<g>
					<path class="st3" d="M177.3,175.9c0,0,0-0.1,0-0.1c-0.3,0.1-0.7,0.1-1,0.1c-0.7,0-1.4-0.1-1.9-0.4c-0.6-0.2-1.1-0.6-1.5-1
						c-0.4-0.4-0.7-1-0.9-1.6c-0.2-0.6-0.3-1.3-0.3-2.1c0-0.7,0.1-1.4,0.3-2c0.2-0.6,0.6-1.1,1-1.6c0.4-0.5,0.9-0.8,1.5-1.1
						c0.6-0.3,1.2-0.4,1.9-0.4c0.6,0,1.1,0.1,1.7,0.3c0.6,0.2,1.1,0.6,1.4,1.1l1.9-1.5c-0.6-0.8-1.8-1.4-2.2-1.6
						c-0.4-0.2-0.9-0.3-1.4-0.4c-0.5-0.1-0.9-0.1-1.4-0.1c-1.1,0-2.1,0.2-3,0.5c-0.9,0.3-1.7,0.8-2.4,1.4c-0.7,0.6-1.2,1.4-1.6,2.3
						c-0.4,0.9-0.6,1.9-0.6,3c0,1.1,0.2,2.1,0.5,3c0.4,0.9,0.9,1.7,1.5,2.3c0.6,0.6,1.4,1.1,2.3,1.5c0.9,0.4,1.9,0.5,3,0.5
						c0.7,0,1.4-0.1,2-0.3C177.7,177.4,177.3,176.7,177.3,175.9z"/>
					<path class="st3" d="M179.6,174.5c-0.8,0-1.4,0.6-1.4,1.4c0,0.8,0.6,1.4,1.4,1.4s1.4-0.6,1.4-1.4
						C181.1,175.1,180.4,174.5,179.6,174.5z"/>
				</g>
				<g>
					<path class="st3" d="M159.6,175.6v-3.9h2.9c-0.1-0.3-0.2-0.7-0.2-1c0-0.4,0.1-0.7,0.2-1h-2.9v-3.5h6.7V164h-9.1v13.8h9.5v-2.2
						H159.6z"/>
					<path class="st3" d="M163.2,170.6c0,0.8,0.6,1.4,1.4,1.4c0.8,0,1.4-0.6,1.4-1.4c0-0.8-0.6-1.4-1.4-1.4
						C163.8,169.2,163.2,169.9,163.2,170.6z"/>
				</g>
				<g>
					<path class="st3" d="M151.5,172.4c-0.1,0.3-0.2,0.5-0.3,0.7c-0.3,0.6-0.7,1.1-1.3,1.5c-0.5,0.4-1.1,0.6-1.7,0.8
						c-0.6,0.1-1.3,0.2-1.9,0.2h-2v-9.5h2c0.6,0,1.3,0.1,1.9,0.2c0.6,0.1,1.2,0.4,1.7,0.7c0.5,0.4,0.9,0.8,1.3,1.5
						c0.1,0.2,0.1,0.3,0.2,0.5c0.4-0.4,1-0.6,1.6-0.6c0.4,0,0.7,0.1,1,0.2c-0.1-0.3-0.2-0.6-0.4-0.9c-0.5-0.9-1-1.6-1.8-2.1
						c-0.7-0.5-1.5-0.9-2.5-1.2c-0.9-0.2-1.8-0.4-2.7-0.4h-4.9v13.8h4.9c0.9,0,1.8-0.1,2.7-0.4c0.9-0.3,1.7-0.7,2.5-1.2
						c0.7-0.6,1.3-1.3,1.8-2.1c0.2-0.4,0.3-0.8,0.5-1.2c-0.3,0.2-0.7,0.3-1.1,0.3C152.5,173,152,172.8,151.5,172.4z"/>
					<path class="st3" d="M151.6,170.6c0,0.8,0.6,1.4,1.4,1.4c0.8,0,1.4-0.6,1.4-1.4c0-0.8-0.6-1.4-1.4-1.4
						C152.3,169.2,151.6,169.9,151.6,170.6z"/>
				</g>
				<g>
					<path class="st3" d="M191.3,169.4c-0.8,0-1.4,0.6-1.4,1.4c0,0.8,0.6,1.4,1.4,1.4c0.8,0,1.4-0.6,1.4-1.4
						C192.7,170.1,192.1,169.4,191.3,169.4z"/>
					<path class="st3" d="M191.3,163.6c-4,0-7.2,3.2-7.2,7.2c0,4,3.2,7.2,7.2,7.2c4,0,7.2-3.2,7.2-7.2
						C198.5,166.8,195.3,163.6,191.3,163.6z M191.3,175.6c-2.6,0-4.8-2.1-4.8-4.8c0-2.6,2.1-4.8,4.8-4.8c2.6,0,4.8,2.1,4.8,4.8
						C196,173.5,193.9,175.6,191.3,175.6z"/>
				</g>
			</g>
		</g>
	</g>
</g>
</svg>
